<svg width="705" height="161" viewBox="0 0 705 161" fill="none" xmlns="http://www.w3.org/2000/svg">
<path d="M194.05 159.925C182.005 159.925 171.391 157.082 162.207 151.397C153.023 145.712 145.872 138.183 140.753 128.811C135.784 119.284 133.3 108.759 133.3 97.2353C133.3 85.7114 135.935 75.1864 141.204 65.66C146.474 55.9799 153.625 48.2973 162.659 42.6122C171.843 36.9271 182.307 34.0846 194.05 34.0846C205.794 34.0846 216.107 36.9271 224.99 42.6122C234.023 48.2973 241.024 55.9799 245.992 65.66C251.111 75.1864 253.671 85.7114 253.671 97.2353C253.671 98.9254 253.595 100.692 253.445 102.536C253.294 104.38 253.068 106.301 252.767 108.298H164.917C166.573 115.366 169.886 121.128 174.854 125.584C179.973 130.04 186.372 132.268 194.05 132.268C200.675 132.268 206.396 130.731 211.214 127.658C216.182 124.585 220.021 120.744 222.731 116.134L246.444 134.342C241.777 141.871 234.776 148.017 225.441 152.78C216.107 157.543 205.643 159.925 194.05 159.925ZM193.598 60.82C186.372 60.82 180.199 63.0479 175.08 67.5038C169.961 71.9597 166.573 77.7984 164.917 85.02H222.957C221.301 78.413 217.838 72.7279 212.569 67.9647C207.45 63.2016 201.126 60.82 193.598 60.82Z" fill="url(#paint0_linear_1958_38)"/>
<path d="M304.797 159.925C292.752 159.925 281.987 157.082 272.502 151.397C263.017 145.712 255.565 138.183 250.145 128.811C244.875 119.284 242.24 108.759 242.24 97.2353C242.24 85.7114 244.875 75.1864 250.145 65.66C255.565 56.1336 263.017 48.5278 272.502 42.8427C281.987 37.1576 292.752 34.3151 304.797 34.3151C316.992 34.3151 327.757 37.1576 337.091 42.8427C346.577 48.5278 353.954 56.1336 359.223 65.66C364.643 75.1864 367.353 85.7114 367.353 97.2353C367.353 108.759 364.643 119.284 359.223 128.811C353.954 138.183 346.577 145.712 337.091 151.397C327.757 157.082 316.992 159.925 304.797 159.925ZM304.797 131.576C311.271 131.576 316.917 130.04 321.735 126.967C326.552 123.74 330.241 119.515 332.801 114.291C335.511 109.066 336.866 103.381 336.866 97.2353C336.866 90.9356 335.511 85.1736 332.801 79.9495C330.241 74.7254 326.552 70.5768 321.735 67.5038C316.917 64.2771 311.271 62.6638 304.797 62.6638C298.323 62.6638 292.677 64.2771 287.859 67.5038C283.041 70.5768 279.277 74.7254 276.567 79.9495C274.008 85.1736 272.728 90.9356 272.728 97.2353C272.728 103.381 274.008 109.066 276.567 114.291C279.277 119.515 283.041 123.74 287.859 126.967C292.677 130.04 298.323 131.576 304.797 131.576Z" fill="url(#paint1_linear_1958_38)"/>
<path d="M510.051 36.8991C504.966 36.8991 501.009 34.6481 497.42 31.1375C496.648 30.3157 495.963 29.4594 495.364 28.5685C495.225 28.3611 495.09 28.1519 494.96 27.9408C493.16 25.0158 492.26 21.7312 492.26 18.0872C492.26 13.2029 493.98 9.00545 497.42 5.49486C501.009 1.83162 505.346 0 510.431 0C515.666 0 520.003 1.83162 523.443 5.49486C526.883 9.00545 528.603 13.2029 528.603 18.0872C528.603 21.8019 527.722 25.0864 525.959 27.9408C525.836 28.1401 525.709 28.3373 525.577 28.5325C524.96 29.4468 524.249 30.3152 523.443 31.1375C520.003 34.6481 515.286 36.8991 510.051 36.8991ZM494.365 156.184V62.246L525.091 62.2826V156.184H494.365Z" fill="url(#paint2_linear_1958_38)"/>
<path d="M577.119 156.928C565.526 156.928 556.643 154.009 550.47 148.17C544.298 142.332 541.211 132.882 541.211 119.822V63.5853H524.725V62.6759L556.616 12.8802L572.557 12.8804L571.699 37.0805H596.541V63.5853H571.699V118.208C571.699 125.584 574.861 129.271 581.184 129.271H593.831V156.928H577.119Z" fill="url(#paint3_linear_1958_38)"/>
<path d="M645.379 159.924C633.335 159.924 622.721 157.082 613.537 151.397C604.353 145.711 597.201 138.183 592.082 128.81C587.114 119.283 584.63 108.758 584.63 97.2345C584.63 85.7107 587.264 75.1856 592.534 65.6592C597.803 55.9792 604.955 48.2966 613.988 42.6115C623.172 36.9264 633.636 34.0838 645.379 34.0838C657.123 34.0838 667.436 36.9264 676.319 42.6115C685.352 48.2966 692.353 55.9792 697.322 65.6592C702.441 75.1856 705 85.7107 705 97.2345C705 98.9247 704.925 100.692 704.774 102.535C704.624 104.379 704.398 106.3 704.097 108.297H616.247C617.903 115.365 621.215 121.127 626.183 125.583C631.302 130.039 637.701 132.267 645.379 132.267C652.004 132.267 657.725 130.731 662.543 127.658C667.511 124.584 671.351 120.743 674.061 116.134L697.773 134.341C693.106 141.87 686.105 148.016 676.771 152.779C667.436 157.543 656.972 159.924 645.379 159.924ZM644.928 60.8192C637.701 60.8192 631.528 63.0471 626.409 67.503C621.29 71.9589 617.903 77.7976 616.247 85.0193H674.286C672.63 78.4123 669.167 72.7272 663.898 67.964C658.779 63.2008 652.456 60.8192 644.928 60.8192Z" fill="url(#paint4_linear_1958_38)"/>
<path d="M72.4388 159.925C62.1188 159.925 52.5264 158.035 43.6618 154.254C34.9294 150.473 27.2555 145.207 20.6401 138.456C14.157 131.704 9.06312 123.94 5.35849 115.163C1.78616 106.252 0 96.7322 0 86.6052C0 76.4781 1.78616 66.9587 5.35849 58.0469C9.06312 49.135 14.157 41.3034 20.6401 34.5521C27.2555 27.8007 34.9294 22.5347 43.6618 18.7539C52.5264 14.8381 62.1188 12.8802 72.4388 12.8802C84.2143 12.8802 94.2035 14.8381 102.407 18.7539C110.742 22.5347 117.754 28.0032 123.444 35.1597C126.117 38.9004 127.428 40.0161 130.2 45.6919C132.483 50.3651 134.433 55.3955 134.433 61.8878H107.24C106.673 58.7954 103.497 53.8947 101.206 51.3067C98.2549 47.972 93.6313 44.4771 90.102 42.8563C84.8097 40.4258 78.9219 39.2105 72.4388 39.2105C63.5742 39.2105 55.8341 41.371 49.2187 45.6919C42.7356 50.0127 37.7079 55.7514 34.1356 62.9078C30.5632 70.0643 28.7771 77.9634 28.7771 86.6052C28.7771 95.2469 30.5632 103.146 34.1356 110.302C37.7079 117.459 42.7356 123.198 49.2187 127.518C55.8341 131.839 63.5742 134 72.4388 134C83.4204 134 92.2851 131.367 99.0328 126.101C100.715 124.754 102.236 123.232 103.597 121.534C107.698 116.418 110.344 109.703 111.536 101.391L65.8896 101.796V76.2756H138.328C138.593 78.436 138.791 81.0691 138.924 84.1747C139.188 87.1453 139.321 89.7783 139.321 92.0738C139.321 105.171 136.608 116.851 131.184 127.113C125.891 137.24 118.218 145.275 108.162 151.216C98.2389 157.022 86.3312 159.925 72.4388 159.925Z" fill="url(#paint5_linear_1958_38)"/>
<path d="M72.4388 159.925C62.1188 159.925 52.5264 158.035 43.6618 154.254C34.9294 150.473 27.2555 145.207 20.6401 138.456C14.157 131.704 9.06312 123.94 5.35849 115.163C1.78616 106.252 0 96.7322 0 86.6052C0 76.4781 1.78616 66.9587 5.35849 58.0469C9.06312 49.135 14.157 41.3034 20.6401 34.5521C27.2555 27.8007 34.9294 22.5347 43.6618 18.7539C52.5264 14.8381 62.1188 12.8802 72.4388 12.8802C84.2143 12.8802 94.2035 14.8381 102.407 18.7539C110.742 22.5347 117.754 28.0032 123.444 35.1597C126.117 38.9004 127.428 40.0161 130.2 45.6919C132.483 50.3651 134.433 55.3955 134.433 61.8878H107.24C106.673 58.7954 103.497 53.8947 101.206 51.3067C98.2549 47.972 93.6313 44.4771 90.102 42.8563C84.8097 40.4258 78.9219 39.2105 72.4388 39.2105C63.5742 39.2105 55.8341 41.371 49.2187 45.6919C42.7356 50.0127 37.7079 55.7514 34.1356 62.9078C30.5632 70.0643 28.7771 77.9634 28.7771 86.6052C28.7771 95.2469 30.5632 103.146 34.1356 110.302C37.7079 117.459 42.7356 123.198 49.2187 127.518C55.8341 131.839 63.5742 134 72.4388 134C83.4204 134 92.2851 131.367 99.0328 126.101C100.715 124.754 102.236 123.232 103.597 121.534C107.698 116.418 110.344 109.703 111.536 101.391L65.8896 101.796V76.2756H138.328C138.593 78.436 138.791 81.0691 138.924 84.1747C139.188 87.1453 139.321 89.7783 139.321 92.0738C139.321 105.171 136.608 116.851 131.184 127.113C125.891 137.24 118.218 145.275 108.162 151.216C98.2389 157.022 86.3312 159.925 72.4388 159.925Z" fill="url(#paint6_linear_1958_38)"/>
<path d="M428.216 161C417.82 161 408.158 159.096 399.229 155.287C390.432 151.479 382.702 146.174 376.039 139.374C369.508 132.573 364.377 124.752 360.645 115.911C357.047 106.934 355.248 97.3452 355.248 87.1441C355.248 76.9431 357.047 67.354 360.645 58.3771C364.377 49.4001 369.508 41.5112 376.039 34.7105C382.702 27.9098 390.432 22.6052 399.229 18.7968C408.158 14.8524 417.82 12.8802 428.216 12.8802C440.077 12.8802 450.14 14.8524 458.403 18.7968C466.799 22.6052 476.046 28.9468 482 35.9722C485.5 40.1019 486.799 42 488 44C490.61 48.3481 494.365 55.7063 494.365 62.246H463.271C462.7 59.131 459.501 54.1946 457.194 51.5877C454.221 48.2285 449.563 44.7081 446.008 43.0754C440.677 40.6272 434.746 39.403 428.216 39.403C419.286 39.403 411.49 41.5793 404.826 45.9317C398.296 50.2842 393.231 56.0648 389.633 63.2736C386.034 70.4824 384.235 78.4392 384.235 87.1441C384.235 95.8491 386.034 103.806 389.633 111.015C393.231 118.223 398.296 124.004 404.826 128.357C411.49 132.709 419.286 134.885 428.216 134.885C439.278 134.885 448.207 132.233 455.004 126.928C456.699 125.572 458.231 124.039 459.602 122.328C462.83 118.301 465.163 113.29 466.602 107.297H494.365C493.07 114.719 490.745 121.603 487.39 127.949C482.059 138.15 474.329 146.242 464.2 152.227C454.205 158.076 442.21 161 428.216 161Z" fill="url(#paint7_linear_1958_38)"/>
<path d="M510.051 36.8991C504.966 36.8991 501.009 34.6481 497.42 31.1375C496.648 30.3157 495.963 29.4594 495.364 28.5685L510.31 51.5867L510.051 36.8991Z" fill="url(#paint8_linear_1958_38)"/>
<path d="M523.443 31.1375C520.003 34.6481 515.286 36.8991 510.051 36.8991L510.31 51.5867L517.934 39.7824L525.577 28.5325C524.96 29.4468 524.249 30.3152 523.443 31.1375Z" fill="url(#paint9_linear_1958_38)"/>
<defs>
<linearGradient id="paint0_linear_1958_38" x1="155.094" y1="3.07119" x2="616.946" y2="207.491" gradientUnits="userSpaceOnUse">
<stop stop-color="#004EC4"/>
<stop offset="1" stop-color="#008F4C"/>
</linearGradient>
<linearGradient id="paint1_linear_1958_38" x1="155.094" y1="3.07119" x2="616.946" y2="207.491" gradientUnits="userSpaceOnUse">
<stop stop-color="#004EC4"/>
<stop offset="1" stop-color="#008F4C"/>
</linearGradient>
<linearGradient id="paint2_linear_1958_38" x1="155.094" y1="3.07119" x2="616.946" y2="207.491" gradientUnits="userSpaceOnUse">
<stop stop-color="#004EC4"/>
<stop offset="1" stop-color="#008F4C"/>
</linearGradient>
<linearGradient id="paint3_linear_1958_38" x1="155.094" y1="3.07119" x2="616.946" y2="207.491" gradientUnits="userSpaceOnUse">
<stop stop-color="#004EC4"/>
<stop offset="1" stop-color="#008F4C"/>
</linearGradient>
<linearGradient id="paint4_linear_1958_38" x1="155.094" y1="3.07119" x2="616.946" y2="207.491" gradientUnits="userSpaceOnUse">
<stop stop-color="#004EC4"/>
<stop offset="1" stop-color="#008F4C"/>
</linearGradient>
<linearGradient id="paint5_linear_1958_38" x1="155.094" y1="3.07119" x2="616.946" y2="207.491" gradientUnits="userSpaceOnUse">
<stop stop-color="#004EC4"/>
<stop offset="1" stop-color="#008F4C"/>
</linearGradient>
<linearGradient id="paint6_linear_1958_38" x1="155.094" y1="3.07119" x2="616.946" y2="207.491" gradientUnits="userSpaceOnUse">
<stop stop-color="#004EC4"/>
<stop offset="1" stop-color="#008F4C"/>
</linearGradient>
<linearGradient id="paint7_linear_1958_38" x1="155.094" y1="3.07119" x2="616.946" y2="207.491" gradientUnits="userSpaceOnUse">
<stop stop-color="#004EC4"/>
<stop offset="1" stop-color="#008F4C"/>
</linearGradient>
<linearGradient id="paint8_linear_1958_38" x1="155.094" y1="3.07119" x2="616.946" y2="207.491" gradientUnits="userSpaceOnUse">
<stop stop-color="#004EC4"/>
<stop offset="1" stop-color="#008F4C"/>
</linearGradient>
<linearGradient id="paint9_linear_1958_38" x1="155.094" y1="3.07119" x2="616.946" y2="207.491" gradientUnits="userSpaceOnUse">
<stop stop-color="#004EC4"/>
<stop offset="1" stop-color="#008F4C"/>
</linearGradient>
</defs>
</svg>
