<svg width="705" height="215" viewBox="0 0 705 215" fill="none" xmlns="http://www.w3.org/2000/svg">
<g clip-path="url(#clip0_1958_39)">
<path d="M194.05 159.925C182.005 159.925 171.391 157.082 162.207 151.397C153.023 145.712 145.872 138.183 140.753 128.811C135.784 119.284 133.3 108.759 133.3 97.2353C133.3 85.7114 135.935 75.1864 141.204 65.66C146.474 55.9799 153.625 48.2973 162.659 42.6122C171.843 36.9271 182.307 34.0846 194.05 34.0846C205.794 34.0846 216.107 36.9271 224.99 42.6122C234.023 48.2973 241.024 55.9799 245.992 65.66C251.111 75.1864 253.671 85.7114 253.671 97.2353C253.671 98.9254 253.595 100.692 253.445 102.536C253.294 104.38 253.068 106.301 252.767 108.298H164.917C166.573 115.366 169.886 121.128 174.854 125.584C179.973 130.04 186.372 132.268 194.05 132.268C200.675 132.268 206.396 130.731 211.214 127.658C216.182 124.585 220.021 120.744 222.731 116.134L246.444 134.342C241.777 141.871 234.776 148.017 225.441 152.78C216.107 157.543 205.643 159.925 194.05 159.925ZM193.598 60.82C186.372 60.82 180.199 63.0479 175.08 67.5038C169.961 71.9597 166.573 77.7984 164.917 85.02H222.957C221.301 78.413 217.838 72.7279 212.569 67.9647C207.45 63.2016 201.126 60.82 193.598 60.82Z" fill="url(#paint0_linear_1958_39)"/>
<path d="M304.797 159.925C292.752 159.925 281.987 157.082 272.502 151.397C263.017 145.712 255.565 138.183 250.145 128.811C244.875 119.284 242.24 108.759 242.24 97.2353C242.24 85.7114 244.875 75.1864 250.145 65.66C255.565 56.1336 263.017 48.5278 272.502 42.8427C281.987 37.1576 292.752 34.3151 304.797 34.3151C316.992 34.3151 327.757 37.1576 337.091 42.8427C346.577 48.5278 353.954 56.1336 359.223 65.66C364.643 75.1864 367.353 85.7114 367.353 97.2353C367.353 108.759 364.643 119.284 359.223 128.811C353.954 138.183 346.577 145.712 337.091 151.397C327.757 157.082 316.992 159.925 304.797 159.925ZM304.797 131.576C311.271 131.576 316.917 130.04 321.735 126.967C326.552 123.74 330.241 119.515 332.801 114.291C335.511 109.066 336.866 103.381 336.866 97.2353C336.866 90.9356 335.511 85.1736 332.801 79.9495C330.241 74.7254 326.552 70.5768 321.735 67.5038C316.917 64.2771 311.271 62.6638 304.797 62.6638C298.323 62.6638 292.677 64.2771 287.859 67.5038C283.041 70.5768 279.277 74.7254 276.567 79.9495C274.008 85.1736 272.728 90.9356 272.728 97.2353C272.728 103.381 274.008 109.066 276.567 114.291C279.277 119.515 283.041 123.74 287.859 126.967C292.677 130.04 298.323 131.576 304.797 131.576Z" fill="url(#paint1_linear_1958_39)"/>
<path d="M510.051 36.8991C504.966 36.8991 501.009 34.6481 497.42 31.1375C496.648 30.3157 495.963 29.4594 495.364 28.5685C495.225 28.3611 495.09 28.1519 494.96 27.9408C493.16 25.0158 492.26 21.7312 492.26 18.0872C492.26 13.2029 493.98 9.00545 497.42 5.49486C501.009 1.83162 505.346 0 510.431 0C515.666 0 520.003 1.83162 523.443 5.49486C526.883 9.00545 528.603 13.2029 528.603 18.0872C528.603 21.8019 527.722 25.0864 525.959 27.9408C525.836 28.1401 525.709 28.3373 525.577 28.5325C524.96 29.4468 524.249 30.3152 523.443 31.1375C520.003 34.6481 515.286 36.8991 510.051 36.8991ZM494.365 156.184V62.246L525.091 62.2826V156.184H494.365Z" fill="url(#paint2_linear_1958_39)"/>
<path d="M577.119 156.928C565.526 156.928 556.643 154.009 550.47 148.17C544.298 142.332 541.211 132.882 541.211 119.822V63.5853H524.725V62.6759L556.616 12.8802L572.557 12.8804L571.699 37.0805H596.541V63.5853H571.699V118.208C571.699 125.584 574.861 129.271 581.184 129.271H593.831V156.928H577.119Z" fill="url(#paint3_linear_1958_39)"/>
<path d="M645.379 159.924C633.335 159.924 622.721 157.082 613.537 151.397C604.353 145.711 597.201 138.183 592.082 128.81C587.114 119.283 584.63 108.758 584.63 97.2345C584.63 85.7107 587.264 75.1856 592.534 65.6592C597.803 55.9792 604.955 48.2966 613.988 42.6115C623.172 36.9264 633.636 34.0838 645.379 34.0838C657.123 34.0838 667.436 36.9264 676.319 42.6115C685.352 48.2966 692.353 55.9792 697.322 65.6592C702.441 75.1856 705 85.7107 705 97.2345C705 98.9247 704.925 100.692 704.774 102.535C704.624 104.379 704.398 106.3 704.097 108.297H616.247C617.903 115.365 621.215 121.127 626.183 125.583C631.302 130.039 637.701 132.267 645.379 132.267C652.004 132.267 657.725 130.731 662.543 127.658C667.511 124.584 671.351 120.743 674.061 116.134L697.773 134.341C693.106 141.87 686.105 148.016 676.771 152.779C667.436 157.543 656.972 159.924 645.379 159.924ZM644.928 60.8192C637.701 60.8192 631.528 63.0471 626.409 67.503C621.29 71.9589 617.903 77.7976 616.247 85.0193H674.286C672.63 78.4123 669.167 72.7272 663.898 67.964C658.779 63.2008 652.456 60.8192 644.928 60.8192Z" fill="url(#paint4_linear_1958_39)"/>
<path d="M72.4388 159.925C62.1188 159.925 52.5264 158.035 43.6618 154.254C34.9294 150.473 27.2555 145.207 20.6401 138.456C14.157 131.704 9.06312 123.94 5.35849 115.163C1.78616 106.252 0 96.7322 0 86.6052C0 76.4781 1.78616 66.9587 5.35849 58.0469C9.06312 49.135 14.157 41.3034 20.6401 34.5521C27.2555 27.8007 34.9294 22.5347 43.6618 18.7539C52.5264 14.8381 62.1188 12.8802 72.4388 12.8802C84.2143 12.8802 94.2035 14.8381 102.407 18.7539C110.742 22.5347 117.754 28.0032 123.444 35.1597C126.117 38.9004 127.428 40.0161 130.2 45.6919C132.483 50.3651 134.433 55.3955 134.433 61.8878H107.24C106.673 58.7954 103.497 53.8947 101.206 51.3067C98.2549 47.972 93.6313 44.4771 90.102 42.8563C84.8097 40.4258 78.9219 39.2105 72.4388 39.2105C63.5742 39.2105 55.8341 41.371 49.2187 45.6919C42.7356 50.0127 37.7079 55.7514 34.1356 62.9078C30.5632 70.0643 28.7771 77.9634 28.7771 86.6052C28.7771 95.2469 30.5632 103.146 34.1356 110.302C37.7079 117.459 42.7356 123.198 49.2187 127.518C55.8341 131.839 63.5742 134 72.4388 134C83.4204 134 92.2851 131.367 99.0328 126.101C100.715 124.754 102.236 123.232 103.597 121.534C107.698 116.418 110.344 109.703 111.536 101.391L65.8896 101.796V76.2756H138.328C138.593 78.436 138.791 81.0691 138.924 84.1747C139.188 87.1453 139.321 89.7783 139.321 92.0738C139.321 105.171 136.608 116.851 131.184 127.113C125.891 137.24 118.218 145.275 108.162 151.216C98.2389 157.022 86.3312 159.925 72.4388 159.925Z" fill="url(#paint5_linear_1958_39)"/>
<path d="M72.4388 159.925C62.1188 159.925 52.5264 158.035 43.6618 154.254C34.9294 150.473 27.2555 145.207 20.6401 138.456C14.157 131.704 9.06312 123.94 5.35849 115.163C1.78616 106.252 0 96.7322 0 86.6052C0 76.4781 1.78616 66.9587 5.35849 58.0469C9.06312 49.135 14.157 41.3034 20.6401 34.5521C27.2555 27.8007 34.9294 22.5347 43.6618 18.7539C52.5264 14.8381 62.1188 12.8802 72.4388 12.8802C84.2143 12.8802 94.2035 14.8381 102.407 18.7539C110.742 22.5347 117.754 28.0032 123.444 35.1597C126.117 38.9004 127.428 40.0161 130.2 45.6919C132.483 50.3651 134.433 55.3955 134.433 61.8878H107.24C106.673 58.7954 103.497 53.8947 101.206 51.3067C98.2549 47.972 93.6313 44.4771 90.102 42.8563C84.8097 40.4258 78.9219 39.2105 72.4388 39.2105C63.5742 39.2105 55.8341 41.371 49.2187 45.6919C42.7356 50.0127 37.7079 55.7514 34.1356 62.9078C30.5632 70.0643 28.7771 77.9634 28.7771 86.6052C28.7771 95.2469 30.5632 103.146 34.1356 110.302C37.7079 117.459 42.7356 123.198 49.2187 127.518C55.8341 131.839 63.5742 134 72.4388 134C83.4204 134 92.2851 131.367 99.0328 126.101C100.715 124.754 102.236 123.232 103.597 121.534C107.698 116.418 110.344 109.703 111.536 101.391L65.8896 101.796V76.2756H138.328C138.593 78.436 138.791 81.0691 138.924 84.1747C139.188 87.1453 139.321 89.7783 139.321 92.0738C139.321 105.171 136.608 116.851 131.184 127.113C125.891 137.24 118.218 145.275 108.162 151.216C98.2389 157.022 86.3312 159.925 72.4388 159.925Z" fill="url(#paint6_linear_1958_39)"/>
<path d="M428.216 161C417.82 161 408.158 159.096 399.229 155.287C390.432 151.479 382.702 146.174 376.039 139.374C369.508 132.573 364.377 124.752 360.645 115.911C357.047 106.934 355.248 97.3452 355.248 87.1441C355.248 76.9431 357.047 67.354 360.645 58.3771C364.377 49.4001 369.508 41.5112 376.039 34.7105C382.702 27.9098 390.432 22.6052 399.229 18.7968C408.158 14.8524 417.82 12.8802 428.216 12.8802C440.077 12.8802 450.14 14.8524 458.403 18.7968C466.799 22.6052 476.046 28.9468 482 35.9722C485.5 40.1019 486.799 42 488 44C490.61 48.3481 494.365 55.7063 494.365 62.246H463.271C462.7 59.131 459.501 54.1946 457.194 51.5877C454.221 48.2285 449.563 44.7081 446.008 43.0754C440.677 40.6272 434.746 39.403 428.216 39.403C419.286 39.403 411.49 41.5793 404.826 45.9317C398.296 50.2842 393.231 56.0648 389.633 63.2736C386.034 70.4824 384.235 78.4392 384.235 87.1441C384.235 95.8491 386.034 103.806 389.633 111.015C393.231 118.223 398.296 124.004 404.826 128.357C411.49 132.709 419.286 134.885 428.216 134.885C439.278 134.885 448.207 132.233 455.004 126.928C456.699 125.572 458.231 124.039 459.602 122.328C462.83 118.301 465.163 113.29 466.602 107.297H494.365C493.07 114.719 490.745 121.603 487.39 127.949C482.059 138.15 474.329 146.242 464.2 152.227C454.205 158.076 442.21 161 428.216 161Z" fill="url(#paint7_linear_1958_39)"/>
<path d="M510.051 36.8991C504.966 36.8991 501.009 34.6481 497.42 31.1375C496.648 30.3157 495.963 29.4594 495.364 28.5685L510.31 51.5867L510.051 36.8991Z" fill="url(#paint8_linear_1958_39)"/>
<path d="M523.443 31.1375C520.003 34.6481 515.286 36.8991 510.051 36.8991L510.31 51.5867L517.934 39.7824L525.577 28.5325C524.96 29.4468 524.249 30.3152 523.443 31.1375Z" fill="url(#paint9_linear_1958_39)"/>
<path d="M577.894 213.697L590.659 183.602H593.643L606.408 213.697H603.545L592.193 186.934H592.109L580.758 213.697H577.894Z" fill="#FDCE19"/>
<path d="M555.083 186.327V183.602H576.809V186.327H567.442V213.606H564.435V186.327H555.083Z" fill="black"/>
<path d="M521.357 213.606L513 183.602H516.441L522.974 208.933H523.432L529.995 183.602H533.45L540.013 208.933H540.258L546.792 183.602H550.165L542.056 213.606H538.268L531.517 188.7H531.745L524.994 213.606H521.357Z" fill="black"/>
<path d="M633.631 213.867H613.913V182.484H616.86V211.333H633.631V213.867Z" fill="black"/>
<path d="M652.417 201.524C651.315 201.935 650.198 202.226 649.067 202.397C647.936 202.595 646.805 202.723 645.675 202.78C641.505 203.021 639.391 204.625 639.335 207.591C639.363 208.926 639.872 209.926 640.862 210.593C641.823 211.289 642.939 211.637 644.212 211.637C646.374 211.637 648.268 211.097 649.894 210.019C651.519 208.982 652.361 207.329 652.417 205.058V201.524ZM644.424 200.693L648.028 200.225C648.551 200.154 649.145 200.062 649.809 199.948C650.445 199.806 650.996 199.65 651.463 199.48C651.887 199.238 652.163 198.891 652.29 198.436C652.375 197.968 652.417 197.528 652.417 197.116C652.417 195.754 651.993 194.654 651.145 193.816C650.283 192.993 648.834 192.567 646.798 192.539C645.017 192.511 643.547 192.858 642.388 193.582C641.257 194.349 640.544 195.704 640.247 197.649H637.596C637.865 194.994 638.854 193.071 640.565 191.879C642.261 190.758 644.36 190.197 646.862 190.197C649.194 190.197 651.131 190.701 652.672 191.709C654.198 192.787 654.983 194.618 655.025 197.202V209.508C654.983 210.487 655.166 211.112 655.576 211.381C655.958 211.665 656.686 211.623 657.76 211.253V213.297C657.576 213.354 657.301 213.425 656.933 213.51C656.523 213.652 656.113 213.723 655.703 213.723C655.308 213.723 654.919 213.681 654.537 213.595C653.703 213.425 653.152 213.021 652.884 212.382C652.629 211.743 652.488 211.033 652.459 210.253C650.198 212.723 647.399 213.972 644.063 214C642.042 214 640.31 213.446 638.868 212.339C637.356 211.289 636.586 209.678 636.557 207.506C636.557 203.688 639.179 201.417 644.424 200.693Z" fill="black"/>
<path d="M664.778 202.013C664.778 204.767 665.443 207.045 666.771 208.848C668.044 210.679 669.909 211.608 672.369 211.637C674.631 211.637 676.468 210.856 677.882 209.295C679.267 207.804 679.988 205.633 680.044 202.78C680.2 199.884 679.641 197.457 678.369 195.498C677.055 193.554 675.055 192.567 672.369 192.539C669.994 192.596 668.142 193.525 666.814 195.328C665.457 197.131 664.778 199.359 664.778 202.013ZM664.778 209.422V213.383H662.17V182H664.778V194.413C665.641 193.022 666.793 191.964 668.234 191.24C669.69 190.545 671.217 190.197 672.814 190.197C676.221 190.254 678.751 191.439 680.405 193.752C682.03 196.052 682.843 198.848 682.843 202.141C682.843 205.533 682.073 208.337 680.532 210.551C678.906 212.794 676.284 213.943 672.666 214C671.196 213.972 669.74 213.56 668.298 212.765C666.842 212.013 665.697 210.899 664.863 209.422H664.778Z" fill="black"/>
<path d="M687.274 206.314H689.925C690.617 209.948 692.865 211.722 696.667 211.637C698.576 211.608 699.975 211.175 700.865 210.338C701.77 209.543 702.222 208.578 702.222 207.442C702.222 206.633 702.032 205.966 701.65 205.441C701.24 204.916 700.689 204.511 699.996 204.228C699.713 204.057 699.367 203.908 698.957 203.78C698.547 203.639 698.13 203.525 697.706 203.44C696.83 203.269 695.932 203.099 695.013 202.929C694.575 202.773 694.151 202.638 693.741 202.524C693.317 202.439 692.886 202.326 692.448 202.184C691.572 201.914 690.787 201.566 690.094 201.14C689.402 200.672 688.851 200.076 688.441 199.352C688.017 198.614 687.805 197.713 687.805 196.648C687.805 194.718 688.511 193.163 689.925 191.985C691.282 190.821 693.204 190.225 695.692 190.197C700.71 190.098 703.608 192.461 704.385 197.287H701.735C701.509 195.541 700.858 194.306 699.784 193.582C698.682 192.887 697.303 192.539 695.65 192.539C692.3 192.624 690.61 193.916 690.582 196.414C690.582 197.152 690.801 197.762 691.239 198.245C691.635 198.713 692.179 199.111 692.872 199.437C694.3 200.047 695.939 200.537 697.791 200.906C698.71 201.119 699.607 201.367 700.484 201.651C701.346 201.949 702.109 202.34 702.774 202.822C703.466 203.291 704.018 203.901 704.428 204.653C704.809 205.391 705 206.307 705 207.4C704.972 209.557 704.117 211.19 702.434 212.297C700.724 213.432 698.526 214 695.84 214C693.169 213.972 691.112 213.212 689.67 211.722C688.214 210.303 687.416 208.5 687.274 206.314Z" fill="black"/>
<path d="M9.2017 209V190.818H15.3452C16.7715 190.818 17.9375 191.076 18.843 191.591C19.7545 192.1 20.4292 192.789 20.8672 193.659C21.3052 194.529 21.5241 195.5 21.5241 196.571C21.5241 197.642 21.3052 198.616 20.8672 199.492C20.4351 200.368 19.7663 201.066 18.8608 201.587C17.9553 202.102 16.7952 202.359 15.3807 202.359H10.9773V200.406H15.3097C16.2862 200.406 17.0704 200.238 17.6623 199.9C18.2541 199.563 18.6832 199.107 18.9496 198.533C19.2218 197.953 19.358 197.299 19.358 196.571C19.358 195.843 19.2218 195.192 18.9496 194.618C18.6832 194.044 18.2512 193.594 17.6534 193.268C17.0556 192.937 16.2625 192.771 15.2741 192.771H11.4034V209H9.2017ZM40.4118 199.909C40.4118 201.827 40.0655 203.484 39.373 204.881C38.6806 206.277 37.7306 207.355 36.5233 208.112C35.3159 208.87 33.9368 209.249 32.3862 209.249C30.8355 209.249 29.4565 208.87 28.2491 208.112C27.0417 207.355 26.0918 206.277 25.3993 204.881C24.7069 203.484 24.3606 201.827 24.3606 199.909C24.3606 197.991 24.7069 196.334 25.3993 194.938C26.0918 193.541 27.0417 192.464 28.2491 191.706C29.4565 190.948 30.8355 190.57 32.3862 190.57C33.9368 190.57 35.3159 190.948 36.5233 191.706C37.7306 192.464 38.6806 193.541 39.373 194.938C40.0655 196.334 40.4118 197.991 40.4118 199.909ZM38.2811 199.909C38.2811 198.335 38.0177 197.006 37.4909 195.923C36.9701 194.84 36.2628 194.02 35.3691 193.464C34.4814 192.907 33.487 192.629 32.3862 192.629C31.2853 192.629 30.2881 192.907 29.3944 193.464C28.5066 194.02 27.7993 194.84 27.2725 195.923C26.7517 197.006 26.4913 198.335 26.4913 199.909C26.4913 201.483 26.7517 202.812 27.2725 203.895C27.7993 204.978 28.5066 205.798 29.3944 206.354C30.2881 206.911 31.2853 207.189 32.3862 207.189C33.487 207.189 34.4814 206.911 35.3691 206.354C36.2628 205.798 36.9701 204.978 37.4909 203.895C38.0177 202.812 38.2811 201.483 38.2811 199.909ZM47.4164 209L42.4448 190.818H44.682L48.4817 205.626H48.6593L52.53 190.818H55.0158L58.8865 205.626H59.0641L62.8638 190.818H65.101L60.1294 209H57.8567L53.8439 194.511H53.7019L49.6891 209H47.4164ZM67.8443 209V190.818H78.8173V192.771H70.046V198.915H78.2491V200.868H70.046V207.047H78.9593V209H67.8443ZM82.7857 209V190.818H88.9292C90.3496 190.818 91.5156 191.061 92.427 191.546C93.3385 192.026 94.0132 192.685 94.4512 193.526C94.8891 194.366 95.1081 195.322 95.1081 196.393C95.1081 197.465 94.8891 198.415 94.4512 199.243C94.0132 200.072 93.3414 200.723 92.4359 201.196C91.5304 201.664 90.3733 201.898 88.9647 201.898H83.9931V199.909H88.8936C89.8643 199.909 90.6455 199.767 91.2374 199.483C91.8352 199.199 92.2672 198.796 92.5336 198.276C92.8058 197.749 92.9419 197.121 92.9419 196.393C92.9419 195.665 92.8058 195.029 92.5336 194.485C92.2613 193.94 91.8263 193.52 91.2285 193.224C90.6307 192.922 89.8406 192.771 88.8581 192.771H84.9874V209H82.7857ZM91.3439 200.832L95.8184 209H93.2615L88.8581 200.832H91.3439ZM98.7769 209V190.818H109.75V192.771H100.979V198.915H109.182V200.868H100.979V207.047H109.892V209H98.7769ZM119.329 209H113.718V190.818H119.578C121.341 190.818 122.851 191.182 124.105 191.91C125.36 192.632 126.322 193.671 126.991 195.026C127.659 196.376 127.994 197.991 127.994 199.874C127.994 201.768 127.657 203.398 126.982 204.765C126.307 206.127 125.325 207.174 124.034 207.908C122.744 208.636 121.176 209 119.329 209ZM115.92 207.047H119.187C120.69 207.047 121.936 206.757 122.925 206.177C123.913 205.597 124.65 204.771 125.135 203.7C125.621 202.629 125.863 201.353 125.863 199.874C125.863 198.406 125.623 197.142 125.144 196.083C124.665 195.017 123.949 194.201 122.996 193.632C122.043 193.058 120.856 192.771 119.436 192.771H115.92V207.047ZM138.718 209V190.818H145.075C146.341 190.818 147.386 191.037 148.209 191.475C149.031 191.907 149.644 192.49 150.046 193.224C150.449 193.952 150.65 194.76 150.65 195.648C150.65 196.429 150.511 197.074 150.233 197.583C149.961 198.092 149.6 198.495 149.15 198.79C148.706 199.086 148.224 199.305 147.703 199.447V199.625C148.259 199.661 148.818 199.856 149.381 200.211C149.943 200.566 150.413 201.075 150.792 201.738C151.171 202.401 151.36 203.212 151.36 204.17C151.36 205.082 151.153 205.902 150.739 206.63C150.325 207.358 149.671 207.935 148.777 208.361C147.883 208.787 146.72 209 145.288 209H138.718ZM140.92 207.047H145.288C146.726 207.047 147.747 206.769 148.351 206.212C148.96 205.65 149.265 204.969 149.265 204.17C149.265 203.555 149.108 202.987 148.795 202.466C148.481 201.939 148.034 201.519 147.454 201.205C146.874 200.886 146.188 200.726 145.394 200.726H140.92V207.047ZM140.92 198.808H145.004C145.667 198.808 146.264 198.678 146.797 198.418C147.336 198.157 147.762 197.79 148.076 197.317C148.395 196.843 148.555 196.287 148.555 195.648C148.555 194.849 148.277 194.171 147.72 193.615C147.164 193.052 146.282 192.771 145.075 192.771H140.92V198.808ZM153.416 190.818H155.937L160.979 199.305H161.193L166.235 190.818H168.756L162.187 201.507V209H159.985V201.507L153.416 190.818Z" fill="black"/>
</g>
<defs>
<linearGradient id="paint0_linear_1958_39" x1="155.094" y1="3.07119" x2="616.946" y2="207.491" gradientUnits="userSpaceOnUse">
<stop stop-color="#004EC4"/>
<stop offset="1" stop-color="#008F4C"/>
</linearGradient>
<linearGradient id="paint1_linear_1958_39" x1="155.094" y1="3.07119" x2="616.946" y2="207.491" gradientUnits="userSpaceOnUse">
<stop stop-color="#004EC4"/>
<stop offset="1" stop-color="#008F4C"/>
</linearGradient>
<linearGradient id="paint2_linear_1958_39" x1="155.094" y1="3.07119" x2="616.946" y2="207.491" gradientUnits="userSpaceOnUse">
<stop stop-color="#004EC4"/>
<stop offset="1" stop-color="#008F4C"/>
</linearGradient>
<linearGradient id="paint3_linear_1958_39" x1="155.094" y1="3.07119" x2="616.946" y2="207.491" gradientUnits="userSpaceOnUse">
<stop stop-color="#004EC4"/>
<stop offset="1" stop-color="#008F4C"/>
</linearGradient>
<linearGradient id="paint4_linear_1958_39" x1="155.094" y1="3.07119" x2="616.946" y2="207.491" gradientUnits="userSpaceOnUse">
<stop stop-color="#004EC4"/>
<stop offset="1" stop-color="#008F4C"/>
</linearGradient>
<linearGradient id="paint5_linear_1958_39" x1="155.094" y1="3.07119" x2="616.946" y2="207.491" gradientUnits="userSpaceOnUse">
<stop stop-color="#004EC4"/>
<stop offset="1" stop-color="#008F4C"/>
</linearGradient>
<linearGradient id="paint6_linear_1958_39" x1="155.094" y1="3.07119" x2="616.946" y2="207.491" gradientUnits="userSpaceOnUse">
<stop stop-color="#004EC4"/>
<stop offset="1" stop-color="#008F4C"/>
</linearGradient>
<linearGradient id="paint7_linear_1958_39" x1="155.094" y1="3.07119" x2="616.946" y2="207.491" gradientUnits="userSpaceOnUse">
<stop stop-color="#004EC4"/>
<stop offset="1" stop-color="#008F4C"/>
</linearGradient>
<linearGradient id="paint8_linear_1958_39" x1="155.094" y1="3.07119" x2="616.946" y2="207.491" gradientUnits="userSpaceOnUse">
<stop stop-color="#004EC4"/>
<stop offset="1" stop-color="#008F4C"/>
</linearGradient>
<linearGradient id="paint9_linear_1958_39" x1="155.094" y1="3.07119" x2="616.946" y2="207.491" gradientUnits="userSpaceOnUse">
<stop stop-color="#004EC4"/>
<stop offset="1" stop-color="#008F4C"/>
</linearGradient>
<clipPath id="clip0_1958_39">
<rect width="705" height="215" fill="white"/>
</clipPath>
</defs>
</svg>
