<svg width="705" height="161" viewBox="0 0 705 161" fill="none" xmlns="http://www.w3.org/2000/svg">
<g clip-path="url(#clip0_1959_58)">
<path fill-rule="evenodd" clip-rule="evenodd" d="M-35.5 -39.5H744.5V223.5H-35.5V-39.5ZM43.6618 154.254C52.5264 158.035 62.1188 159.925 72.4388 159.925C86.3312 159.925 98.239 157.022 108.162 151.216C118.218 145.275 125.891 137.24 131.184 127.113C133.027 123.626 134.557 119.975 135.774 116.16C136.988 120.556 138.647 124.773 140.753 128.811C145.872 138.183 153.023 145.712 162.207 151.397C171.391 157.082 182.005 159.925 194.05 159.925C205.643 159.925 216.107 157.543 225.441 152.78C234.776 148.017 241.777 141.871 246.444 134.342L222.731 116.134C220.021 120.744 216.182 124.585 211.214 127.658C206.396 130.731 200.675 132.268 194.05 132.268C186.372 132.268 179.973 130.04 174.854 125.584C169.886 121.128 166.573 115.366 164.917 108.298H243.098C244.262 115.585 246.611 122.422 250.145 128.811C255.565 138.183 263.017 145.712 272.502 151.397C281.987 157.082 292.752 159.925 304.797 159.925C316.992 159.925 327.757 157.082 337.091 151.397C346.577 145.712 353.954 138.183 359.223 128.811C360.671 126.266 361.925 123.651 362.986 120.964C366.43 127.762 370.781 133.898 376.039 139.374C382.702 146.174 390.432 151.479 399.229 155.287C408.158 159.096 417.82 161 428.216 161C442.21 161 454.205 158.076 464.2 152.227C474.329 146.242 482.059 138.15 487.39 127.949C490.745 121.603 493.07 114.719 494.365 107.297V156.184H525.091V63.5853H541.211V119.822C541.211 132.882 544.298 142.332 550.47 148.17C556.643 154.009 565.526 156.928 577.119 156.928H593.831V131.813C598.786 139.804 605.355 146.332 613.537 151.397C622.721 157.082 633.335 159.924 645.379 159.924C656.972 159.924 667.436 157.543 676.771 152.779C686.105 148.016 693.106 141.87 697.773 134.341L674.061 116.134C671.351 120.743 667.511 124.584 662.543 127.658C657.725 130.731 652.004 132.267 645.379 132.267C637.701 132.267 631.302 130.039 626.183 125.583C621.215 121.127 617.903 115.365 616.247 108.297H704.097C704.398 106.3 704.624 104.379 704.774 102.535C704.925 100.692 705 98.9247 705 97.2345C705 85.7107 702.441 75.1856 697.322 65.6592C692.353 55.9792 685.352 48.2966 676.319 42.6115C667.436 36.9264 657.123 34.0838 645.379 34.0838C633.636 34.0838 623.172 36.9264 613.988 42.6115C607.068 46.9666 601.252 52.494 596.541 59.1937V37.0805H571.699L572.557 12.8804L556.616 12.8802L524.977 62.2825L494.365 62.246C494.365 55.7063 490.61 48.3481 488 44C486.799 42 485.5 40.1019 482 35.9722C476.046 28.9468 466.799 22.6052 458.403 18.7968C450.14 14.8524 440.077 12.8802 428.216 12.8802C417.82 12.8802 408.158 14.8524 399.229 18.7968C390.432 22.6052 382.702 27.9098 376.039 34.7105C369.508 41.5112 364.377 49.4001 360.645 58.3771C359.849 60.3627 359.141 62.3782 358.521 64.4238C353.306 55.4734 346.163 48.2797 337.091 42.8427C327.757 37.1576 316.992 34.3151 304.797 34.3151C292.752 34.3151 281.987 37.1576 272.502 42.8427C263.017 48.5278 255.565 56.1336 250.145 65.66C249.388 67.0274 248.686 68.4153 248.038 69.8238C247.409 68.4153 246.727 67.0274 245.992 65.66C241.024 55.9799 234.023 48.2973 224.99 42.6122C216.107 36.9271 205.794 34.0846 194.05 34.0846C182.307 34.0846 171.843 36.9271 162.659 42.6122C153.625 48.2973 146.474 55.9799 141.204 65.66C139.318 69.0705 137.769 72.609 136.558 76.2756H65.8896V101.796L111.536 101.391C110.344 109.703 107.698 116.418 103.597 121.534C102.236 123.232 100.715 124.754 99.0328 126.101C92.2851 131.367 83.4204 134 72.4388 134C63.5742 134 55.8341 131.839 49.2187 127.518C42.7356 123.198 37.7079 117.459 34.1356 110.302C30.5632 103.146 28.7771 95.2469 28.7771 86.6052C28.7771 77.9634 30.5632 70.0643 34.1356 62.9078C37.7079 55.7514 42.7356 50.0127 49.2187 45.6919C55.8341 41.371 63.5742 39.2105 72.4388 39.2105C78.9219 39.2105 84.8097 40.4258 90.102 42.8563C93.6313 44.4771 98.2549 47.972 101.206 51.3067C103.497 53.8947 106.673 58.7954 107.24 61.8878H134.433C134.433 55.3955 132.483 50.3651 130.2 45.6919C128.087 41.3661 126.823 39.6891 125.158 37.4801C124.638 36.7907 124.08 36.0494 123.444 35.1597C117.754 28.0032 110.742 22.5347 102.407 18.7539C94.2036 14.8381 84.2143 12.8802 72.4388 12.8802C62.1188 12.8802 52.5264 14.8381 43.6618 18.7539C34.9294 22.5347 27.2555 27.8007 20.6401 34.5521C14.157 41.3034 9.06313 49.135 5.35849 58.0469C1.78616 66.9587 0 76.4781 0 86.6052C0 96.7322 1.78616 106.252 5.35849 115.163C9.06313 123.94 14.157 131.704 20.6401 138.456C27.2555 145.207 34.9294 150.473 43.6618 154.254ZM524.977 62.2825L525.091 62.2826V63.5853H524.725V62.6759L524.977 62.2825ZM494.365 62.246V107.297H466.602C465.163 113.29 462.83 118.301 459.602 122.328C458.231 124.039 456.699 125.572 455.004 126.928C448.207 132.233 439.278 134.885 428.216 134.885C419.286 134.885 411.49 132.709 404.826 128.357C398.296 124.004 393.231 118.223 389.633 111.015C386.034 103.806 384.235 95.8491 384.235 87.1441C384.235 78.4392 386.034 70.4824 389.633 63.2736C393.231 56.0648 398.296 50.2842 404.826 45.9317C411.49 41.5793 419.286 39.403 428.216 39.403C434.746 39.403 440.677 40.6272 446.008 43.0754C449.563 44.7081 454.221 48.2285 457.194 51.5877C459.501 54.1946 462.7 59.131 463.271 62.246H494.365ZM571.699 63.5853H593.71C593.308 64.2661 592.916 64.9574 592.534 65.6592C587.264 75.1856 584.63 85.7107 584.63 97.2345C584.63 108.758 587.114 119.283 592.082 128.81L592.162 128.956C592.22 129.061 592.278 129.166 592.337 129.271H581.184C574.861 129.271 571.699 125.584 571.699 118.208V63.5853ZM193.598 60.82C186.372 60.82 180.199 63.0479 175.08 67.5038C169.961 71.9597 166.573 77.7984 164.917 85.02H222.957C221.301 78.413 217.838 72.7279 212.569 67.9647C207.45 63.2016 201.126 60.82 193.598 60.82ZM321.735 126.967C316.917 130.04 311.271 131.576 304.797 131.576C298.323 131.576 292.677 130.04 287.859 126.967C283.041 123.74 279.277 119.515 276.567 114.291C274.008 109.066 272.728 103.381 272.728 97.2353C272.728 90.9356 274.008 85.1736 276.567 79.9495C279.277 74.7254 283.041 70.5768 287.859 67.5038C292.677 64.2771 298.323 62.6638 304.797 62.6638C311.271 62.6638 316.917 64.2771 321.735 67.5038C326.552 70.5768 330.241 74.7254 332.801 79.9495C335.511 85.1736 336.866 90.9356 336.866 97.2353C336.866 103.381 335.511 109.066 332.801 114.291C330.241 119.515 326.552 123.74 321.735 126.967ZM517.934 39.7824L510.31 51.5867L495.364 28.5685L494.96 27.9408C493.16 25.0158 492.26 21.7312 492.26 18.0872C492.26 13.2029 493.98 9.00546 497.42 5.49486C501.009 1.83162 505.346 0 510.431 0C515.666 0 520.003 1.83162 523.443 5.49486C526.883 9.00546 528.603 13.2029 528.603 18.0872C528.603 21.8019 527.722 25.0864 525.959 27.9408L525.577 28.5325C525.556 28.5634 525.535 28.5944 525.514 28.6253L517.934 39.7824ZM644.928 60.8192C637.701 60.8192 631.528 63.0471 626.409 67.503C621.29 71.9589 617.903 77.7976 616.247 85.0193H674.286C672.63 78.4122 669.167 72.7272 663.898 67.964C658.779 63.2008 652.456 60.8192 644.928 60.8192Z" fill="white"/>
</g>
<defs>
<clipPath id="clip0_1959_58">
<rect width="705" height="161" fill="white"/>
</clipPath>
</defs>
</svg>
